# xmcd CD database file
#
# Track frame offsets:
#	150
#	23315
#	45527
#	61285
#	80630
#	102052
#	125070
#	135562
#	154282
#
# Disc length: 2457 seconds
#
# Revision: 0
# Processed by: cddbd v1.4PL0 Copyright (c) Steve Scherf et al.
# Submitted via: CDex 1.50beta10
#
DISCID=6c099709
DTITLE=Joe Negri - Afternoon In Rio
DYEAR=1998
DGENRE=Jazz
TTITLE0=O Grande Amour
TTITLE1=Leva E Traz
TTITLE2=Modinha
TTITLE3=Red On Red
TTITLE4=Minha Saudade
TTITLE5=The Island
TTITLE6=J.P. Choro
TTITLE7=Never Before
TTITLE8=Lush Life
EXTD=YEAR: 1998
EXTT0=
EXTT1=
EXTT2=
EXTT3=
EXTT4=
EXTT5=
EXTT6=
EXTT7=
EXTT8=
PLAYORDER=
